<svg xmlns="http://www.w3.org/2000/svg" width="16" height="18" viewBox="0 0 16 18" fill="none">
                    <path fill-rule="evenodd" clip-rule="evenodd" d="M5.07789 4.23647L2.94737 2.60253L5.63368 2.52672L6.52631 0L7.41894 2.52672L10.1053 2.60253L7.97473 4.23647L8.74105 6.81373L6.52631 5.28928L4.31158 6.81373L5.07789 4.23647ZM1.38105 9.47522L1.90735e-06 8.42242L1.73474 8.3803L2.31579 6.73793L2.89684 8.3803L4.63158 8.42242L3.25053 9.47522L3.74737 11.1429L2.31579 10.1574L0.884211 11.1429L1.38105 9.47522ZM2.8077 12.9645C1.82182 12.9645 0.876353 12.7884 1.23978e-05 12.4654C1.14847 15.6934 4.187 18 7.75481 18C12.3085 18 16 14.2426 16 9.60757C16 5.97604 13.7339 2.88325 10.5625 1.71428C10.8799 2.60627 11.0529 3.56862 11.0529 4.57211C11.0529 9.20712 7.36139 12.9645 2.8077 12.9645Z" fill="#FFFFFF"></path>
                
</svg>