<svg xmlns="http://www.w3.org/2000/svg" width="18" height="18" viewBox="0 0 18 18" fill=" 	#fffec8">
                    <path d="M9.99994 3.15V0H7.99994V3.15C8.65994 3.01667 9.33994 3.01667 9.99994 3.15Z" fill="	#fffec8"></path>
                    <path d="M5.57011 4.15018L3.34012 1.93018L1.93011 3.34018L4.15011 5.57018C4.54031 5.02043 5.02037 4.54037 5.57011 4.15018Z" fill=" 	#fffec8"></path>
                    <path d="M4.15011 12.4302L1.93011 14.6602L3.34012 16.0702L5.57011 13.8502C5.02037 13.46 4.54031 12.9799 4.15011 12.4302Z" fill=" 	#fffec8"></path>
                    <path d="M16.0701 3.34018L13.8501 5.57018C13.4599 5.02043 12.9799 4.54037 12.4301 4.15018L14.6601 1.93018L16.0701 3.34018Z" fill=" 	#fffec8"></path>
                    <path d="M3.14994 8C3.08649 8.32963 3.05302 8.66433 3.04994 9C3.05302 9.33567 3.08649 9.67037 3.14994 10H-6.10352e-05V8H3.14994Z" fill=" 	#fffec8"></path>
                    <path d="M12.4301 13.8502L14.6601 16.0702L16.0701 14.6602L13.8501 12.4302C13.4599 12.9799 12.9799 13.46 12.4301 13.8502Z" fill=" 	#fffec8"></path>
                    <path d="M7.99994 18.0001V14.8501C8.65994 14.9834 9.33994 14.9834 9.99994 14.8501V18.0001H7.99994Z" fill=" 	#fffec8"></path>
                    <path d="M14.85 10H18V8H14.85C14.9834 8.66 14.9834 9.34 14.85 10Z" fill=" 	#fffec8"></path>
                    <path d="M12.96 9.00004C12.96 11.1871 11.187 12.96 8.99998 12.96C6.81293 12.96 5.03998 11.1871 5.03998 9.00004C5.03998 6.81299 6.81293 5.04004 8.99998 5.04004C11.187 5.04004 12.96 6.81299 12.96 9.00004Z" fill=" 	#fffec8"></path>
                </svg>